<?xml version="1.0" encoding="utf-8"?>
<!-- Generator: Adobe Illustrator 27.1.1, SVG Export Plug-In . SVG Version: 6.00 Build 0)  -->
<svg version="1.1" id="Слой_1" xmlns="http://www.w3.org/2000/svg" xmlns:xlink="http://www.w3.org/1999/xlink" x="0px" y="0px"
	 viewBox="0 0 29 50" style="enable-background:new 0 0 29 50;" xml:space="preserve">
<style type="text/css">
	.st0{fill:#FF4A4A;stroke:#000000;stroke-width:0.5;}
</style>
<path class="st0" d="M0.3,0.7c0-0.2,0-0.3,0.1-0.4c0-0.1,0.1-0.1,0.2-0.1l2.3,0c0.4,0,0.9,0.3,1.6,0.7c0.3,0.2,0.6,0.4,0.9,0.7
	c0,0,0.1,0.1,0.2,0.1C6,2.1,6.4,2.4,6.9,2.7c1.8,1.3,4.2,2.5,7.6,2.5c3.4,0,5.8-1.3,7.6-2.5c0.5-0.3,0.9-0.6,1.2-0.9
	c0.1,0,0.1-0.1,0.2-0.1c0.3-0.2,0.6-0.5,0.9-0.7c0.7-0.5,1.2-0.7,1.6-0.7l2.3,0c0.1,0,0.2,0,0.2,0.1c0.1,0.1,0.1,0.2,0.1,0.4v48.5
	c0,0.3-0.2,0.5-0.5,0.5H0.8c-0.3,0-0.5-0.2-0.5-0.5V0.7z"/>
</svg>
