<svg width="25" height="26" viewBox="0 0 25 26" fill="none" xmlns="http://www.w3.org/2000/svg">
<path d="M24.9314 13.0001C24.9314 13.6973 24.8742 14.3813 24.7637 15.0473C24.7626 15.0535 24.7617 15.0596 24.7607 15.0654C24.4449 16.9542 23.7032 18.6986 22.6379 20.1967C22.635 20.2007 22.6321 20.2047 22.6293 20.2086C22.2273 20.7728 21.7792 21.3018 21.2903 21.7906C20.9916 22.0892 20.6777 22.3729 20.3498 22.6402C20.3113 22.6718 20.2724 22.7028 20.2335 22.7338C20.1166 22.8269 19.9981 22.9179 19.8779 23.0066C19.8217 23.048 19.7654 23.089 19.7084 23.1295C19.3189 23.4072 18.9126 23.6632 18.4914 23.8954C18.4477 23.9194 18.4035 23.9433 18.3594 23.967C17.1933 24.5911 15.9163 25.0349 14.5653 25.2609C13.8938 25.3733 13.2036 25.4316 12.5 25.4316C11.7963 25.4316 11.1063 25.3733 10.4346 25.2609C9.08362 25.0349 7.8066 24.5911 6.64056 23.967C6.59628 23.9433 6.55227 23.9194 6.5084 23.8954C6.08733 23.6632 5.68102 23.4072 5.29145 23.1295C5.23459 23.089 5.17801 23.048 5.12184 23.0066C5.00171 22.9179 4.88309 22.8269 4.76624 22.7338C4.72729 22.7028 4.68861 22.6718 4.65007 22.6402C4.3222 22.3729 4.00814 22.0892 3.70952 21.7906C3.2208 21.302 2.77268 20.7728 2.37046 20.2088V20.2086C1.30049 18.7079 0.55579 16.9592 0.239132 15.0654C0.238039 15.0596 0.237083 15.0535 0.235989 15.0473C0.125699 14.3813 0.0682983 13.6973 0.0682983 13.0001C0.0682983 12.2963 0.126792 11.6062 0.239132 10.9347C0.55579 9.041 1.30049 7.2922 2.37046 5.79146C3.17488 4.66314 4.16312 3.67489 5.29145 2.87061C6.79226 1.80064 8.54092 1.05594 10.4346 0.739283C11.1063 0.627077 11.7963 0.568447 12.5 0.568447C13.2036 0.568447 13.8938 0.627077 14.5653 0.739283C16.459 1.05594 18.2077 1.80064 19.7084 2.87061C20.8369 3.67503 21.825 4.66327 22.6293 5.79173C23.6992 7.29248 24.4439 9.041 24.7607 10.9347C24.8729 11.6062 24.9314 12.2963 24.9314 13.0001Z" fill="#F68722"/>
<path d="M2.43883 20.1867C2.83411 20.7389 3.27783 21.2621 3.75789 21.7421C4.05352 22.0378 4.36823 22.3222 4.69329 22.5872C4.73164 22.6185 4.77011 22.6495 4.80886 22.6803C4.92568 22.7732 5.04468 22.8645 5.16247 22.9514C5.21662 22.9913 5.2734 23.0326 5.3312 23.0739C5.71809 23.3497 6.12522 23.6059 6.54137 23.8354C6.58497 23.8593 6.62898 23.8831 6.67299 23.9067C7.85502 24.5395 9.12438 24.9725 10.4458 25.1933C11.1199 25.3061 11.811 25.3632 12.5001 25.3632C13.189 25.3632 13.8801 25.3061 14.5542 25.1933C15.8756 24.9725 17.145 24.5395 18.3272 23.9067C18.371 23.8831 18.4149 23.8593 18.4586 23.8353C18.8745 23.6061 19.2818 23.3498 19.6688 23.0737C19.7235 23.0348 19.7803 22.9935 19.8375 22.9514C19.9535 22.8659 20.0724 22.7746 20.191 22.6803C20.2298 22.6495 20.2684 22.6185 20.3066 22.5872C20.6311 22.3228 20.9458 22.0384 21.2421 21.7421C21.728 21.2562 22.176 20.7269 22.5737 20.1687L22.5826 20.1564C23.6583 18.644 24.3882 16.8794 24.6932 15.0541L24.6965 15.0353C24.8071 14.3678 24.8631 13.6827 24.8631 13C24.8631 12.3109 24.806 11.6198 24.6932 10.9458C24.3872 9.11537 23.6543 7.34676 22.5737 5.83126C21.7716 4.70594 20.7943 3.72863 19.6688 2.92626C18.1533 1.84563 16.3847 1.11268 14.5542 0.806686C13.8801 0.693935 13.189 0.636669 12.5001 0.636669C11.811 0.636669 11.1199 0.693935 10.4458 0.806686C8.6153 1.11268 6.84669 1.84563 5.33116 2.92626C4.20589 3.72836 3.2285 4.70567 2.42615 5.83112C1.3456 7.34662 0.612665 9.11523 0.306572 10.9458C0.193835 11.6198 0.136681 12.3109 0.136681 13C0.136681 13.6827 0.192783 14.3678 0.303442 15.0361L0.306408 15.0532C0.612666 16.8846 1.3456 18.6532 2.42615 20.1687L2.43883 20.1867ZM12.5001 25.5C11.8035 25.5 11.1047 25.4422 10.4233 25.3282C9.08721 25.1048 7.80363 24.667 6.60834 24.0271C6.56379 24.0032 6.51951 23.9793 6.4755 23.9551C6.0547 23.7231 5.64303 23.4641 5.25182 23.1851C5.19342 23.1434 5.13608 23.1018 5.08134 23.0614C4.96218 22.9734 4.84188 22.8812 4.72374 22.7873C4.68454 22.756 4.64565 22.7247 4.6069 22.6931C4.2783 22.4253 3.96013 22.1377 3.66123 21.8387C3.17071 21.3483 2.71772 20.8131 2.31486 20.2483L2.30216 20.2302C1.76629 19.4758 1.31455 18.6619 0.959281 17.8106C0.593519 16.9341 0.328562 16.0143 0.171777 15.0767L0.168757 15.0592C0.0567306 14.3827 0 13.6902 0 13C0 12.3034 0.0577965 11.6048 0.171777 10.9232C0.328562 9.98553 0.593519 9.06576 0.959281 8.18931C1.31735 7.33132 1.77342 6.51118 2.31486 5.75172C3.12605 4.61396 4.11419 3.62586 5.25182 2.81487C6.01124 2.27353 6.83138 1.81748 7.68938 1.45927C8.56583 1.09355 9.4856 0.82869 10.4233 0.671797C11.1048 0.557816 11.8035 0.500002 12.5001 0.500002C13.1965 0.500002 13.8952 0.557816 14.5767 0.671797C15.5144 0.82869 16.4342 1.09355 17.3106 1.45927C18.1686 1.81748 18.9888 2.27353 19.7482 2.81487C20.886 3.62613 21.8741 4.61423 22.6851 5.75185C23.2264 6.51131 23.6825 7.33145 24.0405 8.18931C24.4064 9.06576 24.6712 9.98553 24.8281 10.9232C24.9421 11.6046 24.9998 12.3034 24.9998 13C24.9998 13.6902 24.9431 14.3827 24.8313 15.0583L24.8279 15.0776C24.6718 16.0117 24.4077 16.9292 24.0435 17.8037C23.687 18.6597 23.2328 19.478 22.6937 20.2361L22.6846 20.2486C22.2828 20.8124 21.8299 21.3475 21.3387 21.8387C21.0392 22.1383 20.721 22.4258 20.393 22.6931C20.3543 22.7247 20.3152 22.756 20.2762 22.7873C20.1562 22.8825 20.0359 22.9749 19.9185 23.0614C19.8608 23.1039 19.8036 23.1456 19.7482 23.185C19.3568 23.4641 18.945 23.7232 18.5245 23.955C18.4804 23.9793 18.4362 24.0032 18.3918 24.0271C17.1964 24.667 15.9128 25.1048 14.5767 25.3282C13.8953 25.4422 13.1965 25.5 12.5001 25.5Z" fill="#F68722"/>
<path d="M19.3397 13C19.3397 16.7772 16.2776 19.8394 12.5004 19.8394C8.72315 19.8394 5.66104 16.7772 5.66104 13C5.66104 9.22277 8.72315 6.1606 12.5004 6.1606C16.2776 6.1606 19.3397 9.22277 19.3397 13Z" fill="white"/>
<path d="M14.5654 0.739082V2.54172C14.5654 3.19513 14.0357 3.72485 13.3823 3.72485H11.6176C10.9642 3.72485 10.4345 3.19513 10.4345 2.54172V0.739082C11.1062 0.626878 11.7963 0.568248 12.5 0.568248C13.2037 0.568248 13.8937 0.626878 14.5654 0.739082Z" fill="white"/>
<path d="M14.5654 23.4583V25.2609C13.8937 25.3733 13.2037 25.4316 12.5 25.4316C11.7963 25.4316 11.1062 25.3733 10.4345 25.2609V23.4583C10.4345 22.8048 10.9642 22.2752 11.6176 22.2752H13.3823C14.0357 22.2752 14.5654 22.8048 14.5654 23.4583Z" fill="white"/>
<path d="M3.2249 12.1177V13.8823C3.2249 14.5357 2.69532 15.0654 2.04191 15.0654H0.238996C0.238039 15.0594 0.237083 15.0533 0.235989 15.0473C0.125699 14.3811 0.0682983 13.6973 0.0682983 13C0.0682983 12.2963 0.126792 11.6062 0.239132 10.9345H2.04191C2.69532 10.9345 3.2249 11.4642 3.2249 12.1177Z" fill="white"/>
<path d="M24.9317 13C24.9317 13.6973 24.8743 14.3811 24.764 15.0473C24.7629 15.0533 24.762 15.0594 24.7612 15.0654H22.9582C22.3048 15.0654 21.7751 14.5357 21.7751 13.8823V12.1177C21.7751 11.4642 22.3048 10.9345 22.9582 10.9345H24.761C24.8732 11.6062 24.9317 12.2963 24.9317 13Z" fill="white"/>
<path d="M6.56575 5.81765L5.31805 7.06556C4.85598 7.52763 4.1069 7.52763 3.64483 7.06556L2.37082 5.79141C3.17524 4.66308 4.16348 3.67484 5.29181 2.87055L6.56575 4.14457C7.02782 4.6065 7.02782 5.35571 6.56575 5.81765Z" fill="white"/>
<path d="M22.6292 20.2084C22.2271 20.7727 21.779 21.3017 21.2903 21.7903C20.9915 22.0891 20.6776 22.3728 20.3497 22.6401C20.3112 22.6716 20.2724 22.7027 20.2334 22.7337C20.1166 22.8268 19.9981 22.9178 19.8778 23.0064C19.8217 23.0479 19.7654 23.0889 19.7084 23.1294L18.8608 22.2818L18.4344 21.8555C17.9723 21.3933 17.9723 20.6442 18.4344 20.1823L19.6821 18.9344C20.1442 18.4725 20.8933 18.4725 21.3553 18.9344L21.7817 19.3609L22.6292 20.2084Z" fill="white"/>
<path d="M22.6292 5.79168L21.3553 7.06556C20.8933 7.52763 20.1442 7.52763 19.6821 7.06556L18.4344 5.81765C17.9723 5.35571 17.9723 4.6065 18.4344 4.14457L19.7084 2.87055C20.8368 3.67498 21.8249 4.66322 22.6292 5.79168Z" fill="white"/>
<path d="M6.56496 21.8555L6.13869 22.2818L5.29101 23.1294C5.23416 23.0889 5.17758 23.0479 5.12141 23.0064C5.00128 22.9178 4.88265 22.8268 4.7658 22.7337C4.72685 22.7027 4.68818 22.6716 4.64964 22.6401C4.32177 22.3728 4.00771 22.0891 3.70909 21.7903C3.22037 21.3017 2.77224 20.7727 2.37003 20.2087V20.2084L3.64404 18.9344C4.10611 18.4725 4.85518 18.4725 5.31726 18.9344L6.56496 20.1823C7.02703 20.6442 7.02703 21.3933 6.56496 21.8555Z" fill="white"/>
<path d="M14.5656 25.1915V24.0622C16.1363 23.7706 17.5925 23.1529 18.861 22.2819L19.6597 23.0804C19.2754 23.3539 18.8714 23.6078 18.4588 23.8352C18.4151 23.8593 18.3712 23.8831 18.3273 23.9067C17.1484 24.5377 15.8829 24.97 14.5656 25.1915ZM10.4347 25.1914C9.11733 24.9699 7.85179 24.5377 6.67317 23.9067C6.62917 23.8831 6.58516 23.8593 6.54156 23.8354C6.12883 23.6077 5.72484 23.3538 5.34067 23.0804L6.13935 22.2817C6.13935 22.2819 6.13935 22.2819 6.13935 22.2819C7.4079 23.153 8.86395 23.7707 10.4348 24.0622L10.4347 25.1914ZM22.5806 20.1594L21.782 19.3609C22.6531 18.0921 23.2709 16.636 23.5622 15.0653L24.6915 15.0654C24.3854 16.8867 23.6561 18.6471 22.5827 20.1564L22.5806 20.1594ZM24.6915 10.9345H23.5624C23.5622 10.9345 23.5624 10.9345 23.5622 10.9345C23.2709 9.36382 22.6531 7.90776 21.782 6.63908L22.5806 5.84054C23.6553 7.35098 24.3851 9.11194 24.6915 10.9345Z" fill="#F79130"/>
<path d="M14.5649 25.2609V25.1917C15.8823 24.9701 17.1478 24.5378 18.3267 23.9068C18.3706 23.8832 18.4144 23.8594 18.4582 23.8354C18.8708 23.608 19.2747 23.354 19.659 23.0806L19.708 23.1295C19.765 23.089 19.8213 23.048 19.8774 23.0065C19.9977 22.9179 20.1162 22.8269 20.2331 22.7338C20.272 22.7028 20.3108 22.6716 20.3494 22.6402C20.6772 22.3729 20.9911 22.0892 21.2899 21.7904C21.7786 21.3018 22.2268 20.7728 22.6288 20.2085L22.5799 20.1596L22.5821 20.1566C23.6555 18.6472 24.3847 16.8868 24.6909 15.0656H24.7602C24.4445 16.9542 23.7028 18.6986 22.6374 20.1967C22.6346 20.2007 22.632 20.2047 22.629 20.2086H22.6288C22.2268 20.7728 21.7786 21.3018 21.2899 21.7906C20.9911 22.0892 20.6772 22.3729 20.3494 22.6402C20.3108 22.6718 20.272 22.7028 20.2331 22.7338C20.1162 22.8269 19.9977 22.9179 19.8774 23.0066C19.8213 23.0482 19.765 23.0892 19.708 23.1295C19.3185 23.4072 18.9122 23.6632 18.491 23.8954C18.4471 23.9194 18.4031 23.9433 18.3589 23.967C17.1929 24.5911 15.9159 25.0349 14.5649 25.2609ZM10.4341 25.2609C9.08319 25.0349 7.80617 24.5911 6.64013 23.967C6.59585 23.9433 6.55184 23.9194 6.50797 23.8954C6.0869 23.6632 5.68058 23.4072 5.29101 23.1295C5.23416 23.0892 5.17758 23.0482 5.12141 23.0066C5.00128 22.9179 4.88265 22.8269 4.7658 22.7338C4.72685 22.7028 4.68818 22.6718 4.64964 22.6402C4.32177 22.3729 4.00771 22.0892 3.70909 21.7906C3.22037 21.302 2.77224 20.7728 2.37003 20.2088C2.77224 20.7728 3.22037 21.3018 3.70909 21.7904C4.00771 22.0892 4.32177 22.3729 4.64964 22.6402C4.68818 22.6716 4.72685 22.7028 4.7658 22.7338C4.88265 22.8269 5.00128 22.9179 5.12141 23.0065C5.17758 23.048 5.23416 23.089 5.29101 23.1295L5.34001 23.0806C5.72418 23.3539 6.12817 23.6078 6.5409 23.8355C6.5845 23.8594 6.62851 23.8832 6.67252 23.9068C7.85114 24.5378 9.11667 24.97 10.434 25.1915V25.2609M24.931 13.0001C24.931 12.2964 24.8725 11.6064 24.7603 10.9347H24.6909C24.3845 9.11206 23.6547 7.35111 22.5799 5.84066L22.6288 5.79173C23.6988 7.29248 24.4435 9.041 24.7603 10.9347C24.8725 11.6062 24.931 12.2963 24.931 13.0001Z" fill="#F79130"/>
<path d="M12.5001 25.4316C11.7964 25.4316 11.1064 25.3733 10.4346 25.2609L10.4345 25.1915V24.0622C10.4346 24.0624 10.4346 24.0624 10.4346 24.0624C11.1042 24.1866 11.7946 24.2515 12.5001 24.2515C13.2056 24.2515 13.8959 24.1865 14.5654 24.0624V25.1917V25.2609C13.8937 25.3733 13.2037 25.4316 12.5 25.4316" fill="#FEFEFE"/>
<path d="M24.7608 15.0654H23.5622C23.5622 15.0653 23.5622 15.0653 23.5622 15.0653C23.6865 14.3959 23.7514 13.7055 23.7514 13C23.7514 12.2945 23.6865 11.6041 23.5624 10.9345H24.6915H24.7609C24.8731 11.6062 24.9316 12.2963 24.9316 13C24.9316 13.6971 24.8742 14.3811 24.7639 15.0471C24.7628 15.0531 24.7619 15.0594 24.7611 15.0653H24.7609" fill="#FEFEFE"/>
<path d="M19.7079 23.1294L19.6589 23.0805L18.8603 22.2818C20.0044 21.4965 20.9958 20.505 21.7812 19.3609L22.5798 20.1595L22.6287 20.2084C22.2266 20.7727 21.7785 21.3017 21.2898 21.7903C20.991 22.0891 20.6771 22.3728 20.3492 22.6401C20.3107 22.6716 20.2719 22.7027 20.2329 22.7337C20.1161 22.8268 19.9976 22.9178 19.8773 23.0064C19.8212 23.0479 19.7649 23.0889 19.7079 23.1294Z" fill="#FEFEFE"/>
<path d="M2.41969 20.1595C1.34526 18.6495 0.615514 16.8888 0.308668 15.0655H1.43809C1.72945 16.6361 2.34718 18.0923 3.21816 19.361L2.41969 20.1595ZM1.43806 10.9346H0.308655C0.615199 9.11191 1.345 7.35095 2.4197 5.84051L3.2183 6.63919C2.34718 7.90787 1.72945 9.36392 1.43807 10.9346C1.43806 10.9346 1.43807 10.9346 1.43806 10.9346ZM6.13936 3.7182L5.34068 2.91965C6.85099 1.84504 8.61208 1.11524 10.4347 0.808691V1.93797C8.86396 2.22921 7.4079 2.84695 6.13936 3.7182ZM18.861 3.7182C17.5925 2.84722 16.1363 2.22948 14.5656 1.93784V0.808556C16.3883 1.1151 18.1493 1.8449 19.6597 2.91965L18.861 3.7182Z" fill="#F79130"/>
<path d="M2.37046 20.2084C1.30049 18.7076 0.55579 16.959 0.239132 15.0652L0.308436 15.0653C0.615282 16.8886 1.34503 18.6493 2.41945 20.1593L2.37046 20.2082V20.2084ZM0.0682983 12.9999C0.0682983 12.296 0.126792 11.606 0.239132 10.9344C0.55579 9.04074 1.30049 7.29195 2.37046 5.79121L2.41947 5.84027C1.34477 7.35072 0.614968 9.11167 0.308423 10.9344H0.239132C0.126792 11.6061 0.0682983 12.2962 0.0682983 12.9999ZM5.34044 2.91942L5.29145 2.87035C6.79226 1.80038 8.54078 1.05569 10.4346 0.739027L10.4344 0.808455C8.61185 1.115 6.85075 1.8448 5.34044 2.91942ZM19.6595 2.91942C18.149 1.84467 16.3881 1.11486 14.5653 0.808319V0.739027C13.8936 0.626823 13.2036 0.568193 12.4999 0.568193C12.5 0.568193 12.5 0.568193 12.5 0.568193C13.2036 0.568193 13.8936 0.626823 14.5653 0.739027C16.459 1.05569 18.2077 1.80038 19.7084 2.87035L19.6595 2.91942Z" fill="#F79130"/>
<path d="M10.4345 1.93799V0.739278C10.4346 0.739278 10.4346 0.739278 10.4346 0.739278C11.1064 0.627074 11.7964 0.568444 12.5001 0.568444C13.2037 0.568444 13.8937 0.627074 14.5654 0.739278V0.80857V1.93785C13.8959 1.81362 13.2056 1.7487 12.5001 1.7487C11.7946 1.7487 11.1042 1.81362 10.4346 1.93785" fill="#FEFEFE"/>
<path d="M1.43785 15.0654H0.239146C0.239132 15.0653 0.239132 15.0653 0.239132 15.0653H0.238996C0.238039 15.0594 0.237083 15.0531 0.235989 15.0471C0.125699 14.3811 0.0682983 13.6971 0.0682983 13C0.0682983 12.2963 0.126792 11.6062 0.239132 10.9345H0.308423H1.43783C1.31361 11.6041 1.24869 12.2945 1.24869 13C1.24869 13.7055 1.31361 14.3959 1.43784 15.0653" fill="#FEFEFE"/>
<path d="M3.21764 6.63916L2.41903 5.84048L2.37003 5.79141C3.17445 4.66309 4.16269 3.67485 5.29101 2.87056L5.34001 2.91962L6.13869 3.71817C4.99458 4.5036 4.00306 5.49512 3.21764 6.63916Z" fill="#FEFEFE"/>
<path d="M21.7812 6.63916C20.9957 5.49512 20.0044 4.5036 18.8603 3.71817L19.6589 2.91962L19.7079 2.87056C20.8363 3.67498 21.8244 4.66323 22.6287 5.79169L22.5798 5.84061L21.7812 6.63902" fill="#FEFEFE"/>
<path d="M5.29101 23.1294C5.23416 23.0889 5.17758 23.0479 5.12141 23.0064C5.00128 22.9178 4.88265 22.8268 4.7658 22.7337C4.72685 22.7027 4.68818 22.6716 4.64964 22.6401C4.32177 22.3728 4.00771 22.0891 3.70909 21.7903C3.22037 21.3017 2.77224 20.7727 2.37003 20.2087V20.2085V20.2084L2.41902 20.1595L3.2175 19.3609C4.00306 20.5051 4.99458 21.4966 6.13869 22.2819L5.34001 23.0805L5.29101 23.1294Z" fill="#FEFEFE"/>
<path d="M15.9323 11.9828C15.8996 11.7528 15.8369 11.5022 15.7273 11.2368C15.545 10.795 15.1906 10.4439 14.742 10.2785C14.4884 10.1849 14.2124 10.1516 13.9365 10.189C13.2276 10.2852 12.6479 10.8311 12.5 11.5465C12.3521 10.8311 11.7724 10.2852 11.0635 10.189C10.7876 10.1516 10.5116 10.1849 10.258 10.2785C9.80943 10.4439 9.45506 10.795 9.27274 11.2368C9.16313 11.5022 9.1004 11.7528 9.06774 11.9828C8.68179 14.7046 12.1771 16.9859 12.4963 17.1877C12.4963 17.1892 12.4963 17.1907 12.4963 17.1924C12.4974 17.1916 12.4988 17.1909 12.5 17.1901C12.5012 17.1909 12.5026 17.1916 12.5037 17.1924C12.5037 17.1907 12.5037 17.1892 12.5037 17.1877C12.8229 16.9859 16.3182 14.7046 15.9323 11.9828Z" fill="#BF1E36"/>
<path d="M12.4995 7.54789C9.49319 7.54789 7.0474 9.99369 7.0474 13C7.0474 16.0062 9.49319 18.452 12.4995 18.452C15.5057 18.452 17.9515 16.0062 17.9515 13C17.9515 9.99369 15.5057 7.54789 12.4995 7.54789ZM12.4995 18.9526C11.696 18.9526 10.9163 18.7953 10.1823 18.4848C9.47338 18.185 8.83678 17.7558 8.29025 17.2092C7.74358 16.6626 7.31444 16.026 7.0146 15.3172C6.70409 14.5831 6.54678 13.8034 6.54678 13C6.54678 12.1965 6.70409 11.4168 7.0146 10.6828C7.31444 9.97387 7.74358 9.33728 8.29025 8.79074C8.83678 8.24407 9.47338 7.81494 10.1823 7.51509C10.9163 7.20458 11.696 7.04728 12.4995 7.04728C13.3029 7.04728 14.0826 7.20458 14.8167 7.51509C15.5255 7.81494 16.162 8.24407 16.7087 8.79074C17.2553 9.33728 17.6845 9.97387 17.9843 10.6828C18.2948 11.4168 18.4521 12.1965 18.4521 13C18.4521 13.8034 18.2948 14.5831 17.9843 15.3172C17.6845 16.026 17.2553 16.6626 16.7087 17.2092C16.162 17.7558 15.5255 18.185 14.8167 18.4848C14.0826 18.7953 13.3029 18.9526 12.4995 18.9526Z" fill="#F68722"/>
</svg>
